<?xml version="1.0" encoding="UTF-8"?>
<!DOCTYPE svg  PUBLIC '-//W3C//DTD SVG 1.1//EN'  'http://www.w3.org/Graphics/SVG/1.1/DTD/svg11.dtd'>
<svg clip-rule="evenodd" fill-rule="evenodd" stroke-linejoin="round" stroke-miterlimit="2" version="1.1" viewBox="0 0 1080 1080" xml:space="preserve" xmlns="http://www.w3.org/2000/svg">
    <g transform="matrix(5.5999 0 0 5.5999 -256.43 -2968.2)">
        <g transform="matrix(1.4059 0 0 1.4059 -361.87 -257.04)">
            <path d="m404.95 623.94c-2.479 0.681-4.539 1.371-6.281 1.983-0.452 0.159-0.956 0.049-1.3-0.285-10.049-9.723-23.736-15.71-38.81-15.71-15.764 0-30.012 6.548-40.168 17.071-0.446 0.462-0.635 1.079-0.568 1.673 0.044 0.391-0.096 0.781-0.379 1.054s-0.677 0.399-1.067 0.341c-3.346-0.501-6.134-1.019-8.507-1.53-0.534-0.115-0.934-0.559-0.993-1.103-0.058-0.543 0.24-1.063 0.737-1.288 0.291-0.132 0.554-0.332 0.762-0.592 1.63-2.035 3.382-3.967 5.244-5.786 1.507-1.473 3.088-2.873 4.735-4.193 0.677-0.542 0.944-1.447 0.671-2.27l-3.111-9.355c-0.18-0.542 0.024-1.137 0.5-1.453 2.703-1.801 5.519-3.427 8.43-4.868 0.026-0.013 0.053-0.025 0.079-0.036 0 0 0.888-0.28 1.613 0.536 1.061 1.195 6.363 7.166 6.363 7.166 0.576 0.648 1.494 0.869 2.302 0.554 4.396-1.714 8.967-2.939 13.631-3.652 0.857-0.132 1.541-0.782 1.716-1.631l1.983-9.657c0.115-0.56 0.59-0.973 1.16-1.009 3.241-0.208 6.493-0.208 9.735 0 0.029 2e-3 0.057 4e-3 0.086 8e-3 0 0 0.909 0.201 1.129 1.271 0.321 1.564 1.928 9.387 1.928 9.387 0.174 0.849 0.859 1.499 1.716 1.631 4.664 0.713 9.235 1.938 13.631 3.652 0.807 0.315 1.726 0.094 2.301-0.554l6.547-7.372c0.379-0.427 0.996-0.547 1.508-0.294 2.912 1.441 5.728 3.067 8.431 4.868 0.024 0.016 0.047 0.032 0.07 0.05 0 0 0.687 0.628 0.342 1.665-0.504 1.515-3.023 9.093-3.023 9.093-0.274 0.823-6e-3 1.728 0.67 2.27 1.648 1.32 3.228 2.72 4.736 4.193 0.696 0.68 1.376 1.376 2.041 2.086 0.302 0.324 0.413 0.783 0.293 1.209-0.121 0.427-0.456 0.759-0.883 0.877z" fill="#9f71f3"/>
            <path d="m308.4 626.06c2.328 0.501 5.065 1.009 8.35 1.501 0.566 0.085 1.006 0.54 1.07 1.109 0.05 0.438 0.239 0.863 0.568 1.204 10.156 10.523 24.404 17.07 40.168 17.07 0.385 0 0.769-3e-3 1.152-0.011 0.703-0.014 1.351-0.385 1.721-0.983 0.369-0.599 0.41-1.344 0.107-1.979-0.583-1.224-0.908-2.594-0.908-4.04 0-5.201 4.223-9.424 9.424-9.424 5.142 0 9.328 4.127 9.423 9.247 0.013 0.703 0.382 1.352 0.98 1.723 0.598 0.37 1.343 0.412 1.979 0.11 6.124-2.904 11.637-6.891 16.291-11.713 0.774-0.803 0.774-2.074 0-2.877-0.446-0.461-0.899-0.915-1.359-1.361-0.316-0.305-0.451-0.752-0.357-1.18 0.094-0.429 0.403-0.779 0.817-0.924 1.789-0.629 3.905-1.337 6.45-2.036 0.454-0.125 0.939 0.013 1.261 0.356 1.113 1.192 2.181 2.426 3.202 3.7 0.542 0.677 1.448 0.944 2.27 0.671l9.355-3.111c0.542-0.18 1.137 0.024 1.454 0.499 0.912 1.37 1.779 2.767 2.6 4.192 0.225 0.391 0.225 0.873 0 1.264-0.821 1.425-1.688 2.823-2.6 4.192-0.011 0.016-0.022 0.032-0.034 0.048 0 0-0.632 0.714-1.681 0.365-1.516-0.504-9.094-3.024-9.094-3.024-0.822-0.273-1.728-6e-3 -2.27 0.671-1.63 2.035-3.381 3.967-5.243 5.786-1.508 1.473-3.088 2.873-4.736 4.193-0.676 0.542-0.944 1.447-0.67 2.27l3.11 9.355c0.181 0.542-0.024 1.137-0.499 1.453-2.704 1.801-5.52 3.427-8.431 4.868-0.026 0.013-0.052 0.025-0.079 0.036 0 0-0.887 0.28-1.613-0.537-1.06-1.194-6.363-7.165-6.363-7.165-0.575-0.648-1.494-0.869-2.301-0.554-4.396 1.714-8.967 2.939-13.631 3.652-0.857 0.132-1.542 0.782-1.716 1.631l-1.984 9.657c-0.115 0.559-0.589 0.973-1.159 1.009-3.242 0.208-6.494 0.208-9.735 0-0.029-2e-3 -0.058-4e-3 -0.086-8e-3 0 0-0.909-0.201-1.129-1.271-0.321-1.564-1.928-9.387-1.928-9.387-0.175-0.849-0.859-1.499-1.716-1.631-4.664-0.713-9.235-1.938-13.631-3.652-0.808-0.315-1.726-0.094-2.302 0.554l-6.546 7.372c-0.379 0.427-0.997 0.547-1.508 0.294-2.912-1.441-5.728-3.067-8.431-4.868-0.024-0.016-0.048-0.032-0.071-0.05 0 0-0.686-0.628-0.342-1.665 0.504-1.515 3.024-9.093 3.024-9.093 0.273-0.823 6e-3 -1.728-0.671-2.27-1.647-1.32-3.228-2.72-4.735-4.193-1.862-1.819-3.614-3.751-5.244-5.786-0.542-0.677-1.447-0.944-2.27-0.671l-9.355 3.111c-0.542 0.18-1.137-0.024-1.453-0.499-0.912-1.37-1.779-2.767-2.6-4.192-0.226-0.391-0.226-0.873 0-1.264 0.82-1.425 1.688-2.823 2.6-4.192 0.01-0.017 0.022-0.032 0.033-0.048 0 0 0.632-0.714 1.682-0.365 1.515 0.504 9.093 3.024 9.093 3.024 0.506 0.168 1.044 0.131 1.508-0.079 0.247-0.112 0.524-0.141 0.789-0.084z" fill="#3b00a6"/>
            <g transform="translate(-6.9601 29.198)">
                <path d="m319.13 609.39c-1.922-1.878-3.73-3.872-5.412-5.973l-11.732 3.901c-1.85-2.589-3.539-5.287-5.059-8.079 1.52-2.792 3.209-5.491 5.059-8.08l11.732 3.901c1.682-2.1 3.49-4.094 5.412-5.972 1.556-1.521 3.187-2.966 4.888-4.328l-3.901-11.732c4.106-2.934 8.487-5.463 13.081-7.552l8.209 9.244c4.538-1.769 9.256-3.033 14.071-3.77l2.487-12.11c5.023-0.488 10.082-0.488 15.104 0l2.488 12.11c4.814 0.737 9.533 2.001 14.07 3.77l8.21-9.244c4.594 2.089 8.975 4.618 13.081 7.552l-3.901 11.732c1.7 1.362 3.332 2.807 4.888 4.328 1.922 1.878 3.729 3.872 5.412 5.972l11.732-3.901c1.85 2.589 3.539 5.288 5.058 8.08-1.519 2.792-3.208 5.49-5.058 8.079l-11.732-3.901c-1.683 2.101-3.49 4.095-5.412 5.973-1.556 1.521-3.188 2.965-4.888 4.328l3.901 11.731c-4.106 2.935-8.487 5.464-13.081 7.552l-8.21-9.244c-4.537 1.769-9.256 3.034-14.07 3.77l-2.488 12.111c-5.022 0.488-10.081 0.488-15.104 0l-2.487-12.111c-4.815-0.736-9.533-2.001-14.071-3.77l-8.209 9.244c-4.594-2.088-8.975-4.617-13.081-7.552l3.901-11.731c-1.701-1.363-3.332-2.807-4.888-4.328zm2.333-2.387c1.478 1.444 3.027 2.816 4.642 4.11 1.09 0.873 1.521 2.332 1.08 3.658l-3.11 9.355c2.658 1.771 5.427 3.37 8.29 4.786l6.547-7.371c0.927-1.044 2.406-1.401 3.708-0.893 4.309 1.68 8.79 2.881 13.363 3.58 1.38 0.211 2.483 1.26 2.764 2.628l1.984 9.657c3.188 0.204 6.385 0.204 9.573 0l1.984-9.657c0.281-1.368 1.384-2.417 2.764-2.628 4.572-0.699 9.054-1.9 13.363-3.58 1.301-0.508 2.781-0.151 3.708 0.893 0 0 6.546 7.371 6.547 7.371 2.862-1.416 5.632-3.015 8.29-4.786l-3.111-9.355c-0.44-1.326-9e-3 -2.785 1.081-3.658 1.615-1.294 3.164-2.666 4.642-4.11 1.825-1.784 3.542-3.678 5.14-5.673 0.873-1.089 2.333-1.52 3.658-1.08l9.355 3.111c0.897-1.346 1.75-2.721 2.557-4.123-0.807-1.4-1.66-2.775-2.557-4.121l-9.355 3.11c-1.325 0.441-2.785 0.01-3.658-1.08-1.598-1.995-3.315-3.889-5.14-5.672-1.478-1.444-3.027-2.816-4.642-4.11-1.09-0.873-1.521-2.333-1.081-3.658l3.111-9.355c-2.658-1.771-5.427-3.37-8.291-4.787l-6.546 7.372c-0.927 1.044-2.407 1.4-3.708 0.893-4.309-1.68-8.791-2.881-13.363-3.581-1.38-0.211-2.483-1.259-2.764-2.627l-1.984-9.657c-3.188-0.205-6.385-0.205-9.573 0l-1.984 9.657c-0.281 1.368-1.384 2.416-2.764 2.627-4.573 0.7-9.054 1.901-13.363 3.581-1.302 0.507-2.781 0.151-3.708-0.893l-6.547-7.372c-2.863 1.417-5.632 3.016-8.29 4.787l3.11 9.355c0.441 1.325 0.01 2.785-1.08 3.658-1.615 1.294-3.164 2.666-4.642 4.11-1.826 1.783-3.542 3.677-5.14 5.672-0.874 1.09-2.333 1.521-3.658 1.08 0 0-9.355-3.11-9.356-3.11-0.896 1.346-1.749 2.721-2.556 4.122 0.807 1.401 1.66 2.775 2.557 4.122l9.355-3.111c1.325-0.44 2.784-9e-3 3.658 1.08 1.598 1.995 3.314 3.889 5.14 5.673zm63.707 3.578c-0.082-4.432-3.706-8.005-8.157-8.005-4.502 0-8.158 3.656-8.158 8.159 0 1.25 0.281 2.436 0.786 3.496 0.487 1.023 0.421 2.223-0.174 3.187-0.595 0.965-1.639 1.561-2.772 1.584-0.392 8e-3 -0.784 0.012-1.178 0.012-16.122 0-30.693-6.696-41.079-17.457-1.248-1.294-1.248-3.343 0-4.636 10.386-10.761 24.957-17.457 41.079-17.457 16.123 0 30.693 6.696 41.08 17.457 1.248 1.293 1.248 3.342 0 4.636-4.759 4.93-10.397 9.007-16.66 11.978-1.024 0.486-2.225 0.418-3.188-0.179-0.964-0.597-1.558-1.642-1.579-2.775zm3.337-0.062c5.898-2.797 11.207-6.637 15.688-11.28-9.779-10.132-23.498-16.438-38.678-16.438-15.179 0-28.898 6.306-38.678 16.438 9.78 10.132 23.499 16.437 38.678 16.437 0.371 0 0.741-3e-3 1.11-0.011-0.711-1.494-1.11-3.166-1.11-4.93 0-6.345 5.151-11.496 11.496-11.496 6.273 0 11.379 5.035 11.494 11.28z" fill="#f9f6ff"/>
            </g>
        </g>
        <g transform="translate(-114.57 300.54)">
            <path d="m216.4 314.52c11.687-7.412 25.544-11.705 40.395-11.705 14.55 0 28.145 4.121 39.681 11.257 5.385 3.331 10.321 7.32 14.696 11.853-3.984 4.128-8.433 7.804-13.263 10.944-2.808 1.825-5.745 3.469-8.793 4.915-0.162-8.781-7.34-15.859-16.159-15.859-8.92 0-16.162 7.242-16.162 16.162 0 2.48 0.56 4.83 1.56 6.931-0.518 0.011-1.038 0.016-1.56 0.016-15.437 0-29.799-4.638-41.768-12.596-4.578-3.043-8.805-6.572-12.609-10.513 4.181-4.332 8.874-8.166 13.982-11.405z" fill="#b186ff"/>
        </g>
        <g transform="translate(-114.57 300.54)">
            <path d="m252.04 344.04c-12.638-0.84-24.373-5.005-34.336-11.629-2.939-1.954-5.723-4.122-8.332-6.481 2.986-2.701 6.203-5.151 9.618-7.316 10.937-6.936 23.904-10.952 37.802-10.952 13.616 0 26.339 3.855 37.134 10.533 3.664 2.267 7.107 4.858 10.287 7.735-2.79 2.523-5.781 4.827-8.946 6.884-0.895 0.582-1.804 1.144-2.726 1.686-3.046-7.845-10.671-13.412-19.587-13.412-11.592 0-21.003 9.411-21.003 21.004 0 0.657 0.03 1.306 0.089 1.948z" fill="#dcc9ff"/>
        </g>
    </g>
</svg>
